<?xml version="1.0" standalone="no"?>
<!DOCTYPE svg PUBLIC "-//W3C//DTD SVG 1.1//EN" "http://www.w3.org/Graphics/SVG/1.1/DTD/svg11.dtd" >
<!--
2013-9-30: Created.
-->
<svg>
<metadata>
Created by iconfont
</metadata>
<defs>

<font id="iconfont" horiz-adv-x="1024" >
  <font-face
    font-family="iconfont"
    font-weight="500"
    font-stretch="normal"
    units-per-em="1024"
    ascent="896"
    descent="-128"
  />
    <missing-glyph />
    
    <glyph glyph-name="x" unicode="x" horiz-adv-x="1001"
d="M281 543q-27 -1 -53 -1h-83q-18 0 -36.5 -6t-32.5 -18.5t-23 -32t-9 -45.5v-76h912v41q0 16 -0.5 30t-0.5 18q0 13 -5 29t-17 29.5t-31.5 22.5t-49.5 9h-133v-97h-438v97zM955 310v-52q0 -23 0.5 -52t0.5 -58t-10.5 -47.5t-26 -30t-33 -16t-31.5 -4.5q-14 -1 -29.5 -0.5
t-29.5 0.5h-32l-45 128h-439l-44 -128h-29h-34q-20 0 -45 1q-25 0 -41 9.5t-25.5 23t-13.5 29.5t-4 30v167h911zM163 247q-12 0 -21 -8.5t-9 -21.5t9 -21.5t21 -8.5q13 0 22 8.5t9 21.5t-9 21.5t-22 8.5zM316 123q-8 -26 -14 -48q-5 -19 -10.5 -37t-7.5 -25t-3 -15t1 -14.5
t9.5 -10.5t21.5 -4h37h67h81h80h64h36q23 0 34 12t2 38q-5 13 -9.5 30.5t-9.5 34.5q-5 19 -11 39h-368zM336 498v228q0 11 2.5 23t10 21.5t20.5 15.5t34 6h188q31 0 51.5 -14.5t20.5 -52.5v-227h-327z" />
    

    
    <glyph glyph-name="shouji" unicode="&#58941;" d="M836.540538 833.486224 185.501878 833.486224c-13.317307 0-24.112164-10.616802-24.112164-23.708981l0-853.554026c0-13.09218 10.79588-23.708981 24.112164-23.708981l651.03866 0c13.317307 0 24.112164 10.616802 24.112164 23.708981L860.652701 809.777243C860.652701 822.869423 849.857844 833.486224 836.540538 833.486224zM511.021719-31.925874c-19.97596 0-36.169781 15.926738-36.169781 35.570123 0 19.640316 16.193821 35.56603 36.169781 35.56603 19.97596 0 36.167734-15.925714 36.167734-35.56603C547.189454-15.999137 530.99768-31.925874 511.021719-31.925874zM785.069259 75.936739c0-6.64842-5.367241-12.042267-11.985986-12.042267l-527.371082 0c-6.618744 0-11.987009 5.393847-11.987009 12.042267L233.725182 750.31292c0 6.653537 5.368264 12.042267 11.987009 12.042267l527.371082 0c6.618744 0 11.985986-5.38873 11.985986-12.042267L785.069259 75.936739zM268.968871 107.329726l484.105696 0L753.074567 725.906044l-484.105696 0L268.968871 107.329726z"  horiz-adv-x="1024" />

    
    <glyph glyph-name="15" unicode="&#58886;" d="M767.010919-63.83873700000004c-5.332437 0-10.664875 1.376113-15.48127 3.956325l-241.335797 133.826978-241.851839-132.966907c-10.664875-5.84848-23.909961-5.160423-33.88678 1.892155-9.976818 7.052579-15.137242 19.26558-13.073072 31.306568L268.342012 258.859735 71.901898 460.976314c-8.256677 8.428691-11.180917 20.985721-7.396607 32.166639 3.612296 11.352931 13.245087 19.609609 24.942046 21.673778l154.984714 26.662187c17.545439 2.92424 34.058794-8.77272 36.983034-26.146145s-8.77272-33.88678-26.146145-36.983034l-95.123803-16.341341 165.30556-170.121955c7.052579-7.224593 10.320847-17.545439 8.600706-27.522258l-38.875189-235.659331 199.536368 109.745003c9.63279 5.332437 21.32975 5.332437 30.96254 0l199.19234-110.433059-38.015118 235.831346c-1.548127 9.976818 1.548127 20.297665 8.77272 27.522258l164.617504 168.2298L634.732068 494.347052c-10.492861 1.548127-19.609609 8.428691-24.081975 18.061482L511.397951 724.84596l-100.112212-211.74937c-7.568621-15.997312-26.662187-22.877877-42.659499-15.309256-15.997312 7.568621-22.877877 26.662187-15.309256 42.659499l129.182597 273.502436c5.332437 11.180917 16.513355 18.40551 28.898371 18.40551 0 0 0 0 0 0 12.385016 0 23.737947-7.224593 28.898371-18.40551l120.753906-258.537208 270.406182-41.799429c11.868974-1.892155 21.673778-10.148833 25.458088-21.501764 3.78431-11.352931 0.860071-23.909961-7.568621-32.510667l-196.956157-201.256509 45.927768-284.855367c1.892155-12.040988-3.268268-24.25399-13.245087-31.306568C779.911977-61.946582000000035 773.547455-63.83873700000004 767.010919-63.83873700000004z"  horiz-adv-x="1024" />

    
    <glyph glyph-name="3" unicode="&#59461;" d="M851.90416666 607.41041666l-116.4375 116.94375c-42.75 42.75-112.5 42.75-155.86875 0l-405-405.84375c-13.33125-13.33125-20.86875-31.55625-20.86875-50.4l0-186.35625c0-37.35 19.40625-56.19375 56.25-56.19375l187.7625 1.0125c18.84375 0.05625 36.9 7.65 50.23125 20.98125l403.9875 404.71875C895.21666666 494.96666666 895.21666666 564.66041666 851.90416666 607.41041666zM390.59791666 82.76666666000006L209.97916666 81.69791666000003l0 179.325c0 3.43125 1.06875 6.6375 1.96875 9.9 1.2375-3.825 3.15-7.5375 6.1875-10.575l169.70625-169.65c3.15-3.15 6.91875-5.00625 10.85625-6.24375C395.99791666 83.77916665999999 393.41041666 82.76666666000006 390.59791666 82.76666666000006zM433.29166666 110.44166666000001c-0.225 6.525-2.64375 12.99375-7.65 18l-169.70625 169.70625c-4.66875 4.66875-10.575 6.91875-16.65 7.36875l274.33125 274.55625 194.4-194.4L433.29166666 110.44166666000001zM813.03541666 491.02916666l-63.7875-63.9L554.96041666 621.47291666l64.125 64.18125c21.375 21.375 56.25 21.31875 77.56875-0.05625l116.4375-116.94375C834.46666666 547.1666666599999 834.41041666 512.46041666 813.03541666 491.02916666z"  horiz-adv-x="1024" />

    
    <glyph glyph-name="mima1" unicode="&#58944;" d="M760.384 454.624l0 103.616c0 0-0.032 241.728-241.728 241.728-241.696 0-241.728-241.728-241.728-241.728l0-103.616L173.312 454.624l0-483.488L864-28.864 864 454.624 760.384 454.624zM553.184 187.936l0-113.184-69.056 0 0 113.184c-20.544 11.968-34.528 34.016-34.528 59.488 0 38.176 30.944 69.088 69.056 69.088 38.112 0 69.056-30.912 69.056-69.088C587.744 221.952 573.76 199.904 553.184 187.936M691.328 454.656 345.984 454.656l0 103.136c0.384 28.928 10.56 173.12 172.672 173.12s172.288-144.192 172.672-172.672L691.328 454.656z"  horiz-adv-x="1024" />

    
    <glyph glyph-name="7" unicode="&#58882;" d="M63.766302 651.242554c1.190105 22.903639 1.90335 45.807279 3.628644 68.591191 2.201132 28.496008 25.937742 51.399647 54.493102 53.243645 25.28385 1.665942 50.745754 2.023076 75.909877 4.759397 100.598162 10.827603 193.58088 43.903929 278.949176 98.277304 17.312294 11.005658 35.219129 14.575973 54.731532 8.030907 5.175883-1.784646 10.233062-4.460592 14.813381-7.435343 76.087932-48.544623 158.720931-80.074733 247.65852-94.709035 33.611515-5.592368 67.581188-8.149611 101.667517-8.626471 35.991726-0.535189 59.489906-24.153096 61.989843-60.263525 3.390213-47.889707 2.915399-95.66071-1.606591-143.371338-15.765055-165.621085-70.732971-315.715545-178.291662-444.452581-65.796542-78.825276-145.870252-139.207505-239.507886-181.504844-17.788132-8.030907-35.397185-7.614421-53.243645 0.594541-84.714404 38.370913-158.362774 92.031043-220.886783 160.802336-81.32419 89.592504-135.756917 193.997366-168.001295 310.24188C74.712609 492.521622 64.658625 571.287547 63.766302 651.242554L63.766302 651.242554 63.766302 651.242554zM126.410038 713.172021c-0.594541-11.30344-1.547239-22.36845-1.843998-33.553187-1.547239-55.385425 1.784646-110.473067 10.827603-165.204599 14.396895-87.272669 41.762149-170.201403 85.427648-247.479441 67.164702-118.921483 161.218822-209.227232 285.732673-266.933515 3.867074-1.725294 6.959505-1.784646 10.945283-0.059352 112.912629 52.05354 201.969944 131.593084 267.765463 236.712213 88.224344 140.9328 120.885208 296.024064 113.626897 460.752826-0.237407 5.294586-0.951675 10.529821-1.367137 15.943111-2.14178 0.119727-3.748371 0.297782-5.353938 0.358157-37.598316 0.594541-75.017554 3.687996-112.02133 9.993608-94.41023 16.182564-182.158736 49.674353-263.006066 101.074-3.50994 2.261507-6.007831 2.438539-9.874905 0.118704-14.872732-9.101285-29.864168-18.262946-45.331441-26.532283-89.355097-47.830355-184.599322-75.493391-285.673321-82.631976C160.021553 714.658885 143.721309 714.004993 126.410038 713.172021L126.410038 713.172021 126.410038 713.172021zM452.773084 337.60841300000004c2.201132 2.558265 3.569292 4.461615 5.115508 6.068206 69.841671 69.901023 139.742694 139.741671 209.525014 209.642694 7.734148 7.734148 16.359596 12.374842 27.484981 10.827603 11.600199-1.725294 19.74981-8.150634 23.914666-19.036565 4.164856-11.005658 1.963725-21.059642-5.41329-30.042223-1.546216-1.843998-3.390213-3.628644-5.174859-5.353938-76.980255-76.921927-154.020886-154.080238-231.001141-231.001141-16.895809-16.835434-32.778544-16.835434-49.793056 0.179079-38.133505 37.95545-76.206636 75.969229-114.221438 114.042359-12.434194 12.492522-13.326517 30.16195-2.438539 42.237987 11.600199 12.790304 30.874171 13.326517 43.546795 0.892323 18.262946-17.965164 36.289508-36.110429 54.314023-54.19532C423.087994 367.473605 437.424514 353.01735799999994 452.773084 337.60841300000004L452.773084 337.60841300000004 452.773084 337.60841300000004z"  horiz-adv-x="1024" />

    
    <glyph glyph-name="2" unicode="&#59021;" d="M508.669 472.582l-70.867-42.519v-85.04l35.433-28.346 35.433-21.26 42.519 21.26 35.433 28.346v85.04l-35.433 21.26-42.519 21.26zM508.669 522.188l-56.693-28.346-63.78-35.433v-141.732l63.78-35.433 56.693-35.433 63.78 35.433 56.693 35.433v141.732l-56.693 35.433-63.78 28.346zM508.669 578.8820000000001l170.078-99.213v-191.339l-170.078-99.213-77.953 49.606-85.04 49.606v191.339l85.04 49.606 77.953 49.606zM118.905 451.323l70.867 14.173 42.519 77.953-42.519 70.867 92.126 99.213 70.867-49.606 70.867 42.519 21.26 77.953h134.646l14.173-77.953 70.867-42.519 77.953 49.606 92.126-99.213-42.519-70.867 42.519-77.953 70.867-14.173v-127.559l-77.953-28.346-35.433-70.867 49.606-70.867-92.126-92.126-70.867 42.519-77.953-35.433-14.173-77.953h-148.819l-14.173 77.953-77.953 35.433-70.867-42.519-92.126 92.126 42.519 70.867-28.346 70.867-85.04 28.346 7.087 127.559zM955.126 458.409c0 21.26-14.173 42.519-35.433 42.519l-56.693 7.087-14.173 35.433 35.433 49.606c7.087 21.26 7.087 42.519-7.087 49.606l-106.299 106.299c-7.087 14.173-28.346 21.26-49.606 7.087l-56.692-35.433-21.26 21.26-14.173 56.692c-7.087 21.26-21.26 35.433-42.519 35.433h-148.819c-21.26 0-35.433-14.173-42.519-35.433l-14.173-56.692-28.346-21.26-56.692 35.433c-14.173 14.173-35.433 7.087-49.606-7.087l-99.213-106.299c-14.173-7.087-14.173-28.346-7.087-49.606l35.433-49.606-21.26-35.433-56.692-7.087c-21.26 0-35.433-21.26-35.433-42.519v-141.732c0-14.173 7.087-35.433 28.346-35.433l70.867-28.346 7.087-21.26-35.433-56.692c-14.173-14.173-7.087-42.519 7.087-49.606l106.299-106.299c14.173-14.173 35.433-14.173 49.606-7.087l49.606 35.433 28.346-14.173 14.173-63.78c0-21.26 21.26-35.433 42.519-35.433h162.992c21.26 0 35.433 14.173 42.519 35.433l7.087 63.78 28.346 14.173 49.606-35.433c21.26-7.087 42.519-7.087 56.692 7.087l106.299 106.299c14.173 7.087 14.173 35.433 7.087 49.606l-35.433 56.692 7.087 21.26 70.867 28.346c14.173 0 28.346 21.26 28.346 35.433l-7.087 141.732z"  horiz-adv-x="1025" />

    
    <glyph glyph-name="14" unicode="&#58953;" d="M795.528431 771.934531L676.126148 771.934531 676.126148 801.775649c0 16.481086-13.360032 29.841118-29.841118 29.841118-16.481086 0-29.841118-13.360032-29.841118-29.841118l0-29.841118L407.556088 771.934531 407.556088 801.775649c0 16.481086-13.360032 29.841118-29.841118 29.841118-16.480064 0-29.841118-13.360032-29.841118-29.841118l0-29.841118L228.471569 771.934531c-49.414643 0-89.485541-40.116886-89.485541-89.544814L138.986028 25.927025999999955c0-49.443257 40.038196-89.543792 89.485541-89.543792l567.05584 0C844.942052-63.616765999999984 885.013972-23.49885800000004 885.013972 25.927025999999955L885.013972 682.389717C885.013972 731.835018 844.976798 771.934531 795.528431 771.934531zM825.331737 25.927025999999955c0-16.492327-13.378427-29.861557-29.803305-29.861557L228.471569-3.9345309999999927c-16.460647 0-29.803305 13.352878-29.803305 29.861557L198.668263 682.389717c0 16.492327 13.378427 29.862579 29.803305 29.862579L347.873852 712.252295 347.873852 682.4111780000001c0-16.480064 13.360032-29.841118 29.841118-29.841118 16.481086 0 29.841118 13.361054 29.841118 29.841118l0 29.841118 208.887824 0L616.443912 682.4111780000001c0-16.480064 13.360032-29.841118 29.841118-29.841118 16.480064 0 29.841118 13.361054 29.841118 29.841118l0 29.841118 119.402283 0c16.460647 0 29.803305-13.351856 29.803305-29.862579L825.331737 25.927025999999955zM735.808383 518.28503L288.191617 518.28503c-16.480064 0-29.841118-13.360032-29.841118-29.841118 0-16.480064 13.361054-29.841118 29.841118-29.841118l447.616766 0c16.480064 0 29.841118 13.361054 29.841118 29.841118C765.649501 504.924998 752.288447 518.28503 735.808383 518.28503zM735.808383 369.079441L288.191617 369.079441c-16.480064 0-29.841118-13.360032-29.841118-29.841118 0-16.480064 13.361054-29.841118 29.841118-29.841118l447.616766 0c16.480064 0 29.841118 13.361054 29.841118 29.841118C765.649501 355.71940900000004 752.288447 369.079441 735.808383 369.079441zM735.808383 219.87385200000006L288.191617 219.87385200000006c-16.480064 0-29.841118-13.360032-29.841118-29.841118 0-16.480064 13.361054-29.841118 29.841118-29.841118l447.616766 0c16.480064 0 29.841118 13.361054 29.841118 29.841118C765.649501 206.51382 752.288447 219.87385200000006 735.808383 219.87385200000006z"  horiz-adv-x="1024" />

    
    <glyph glyph-name="9" unicode="&#58883;" d="M806.8864 521.437867c-22.2976 23.483733-46.114133 44.433067-69.956267 62.660267-3.575467 2.722133-6.306133 4.6336-9.472 6.946133 44.270933 15.214933 75.229867 51.618133 75.229867 94.72 0 58.026667-55.082667 102.4256-120.4992 102.4256-15.061333 0-28.936533-2.824533-41.361067-7.560533-5.777067-2.2016-10.103467-4.4288-13.687467-6.510933-2.295467-0.955733-7.168 0.119467-8.507733 1.792l-0.0512-0.0512c-5.000533 7.483733-12.5184 16.750933-23.458133 26.248533-20.821333 18.082133-45.4656 29.243733-73.608533 29.243733-28.1344 0-52.7872-11.1616-73.6-29.243733-10.692267-9.284267-18.0224-18.286933-23.031467-25.685333l-0.034133 0.034133c-1.8944-2.244267-6.801067-3.413333-8.516267-2.594133-3.6352 2.141867-8.1152 4.462933-14.122667 6.7584-12.424533 4.736-26.299733 7.560533-41.361067 7.560533-65.416533 0-120.4992-44.398933-120.4992-102.4256 0-36.846933 22.7328-68.744533 56.9344-86.792533-3.396267-2.414933-7.031467-5.0432-10.9312-7.9616-23.808-17.757867-47.581867-38.468267-69.853867-62.011733-64.6656-68.394667-103.936-146.602667-103.936-233.4208 0-240.768 179.4304-355.259733 395.562667-355.259733 90.5728 0 179.1232 18.065067 250.769067 60.7232 97.237333 57.898667 152.533333 155.170133 152.533333 294.536533C911.4368 377.19039999999995 871.901867 452.983467 806.8864 521.437867L806.8864 521.437867zM508.1344-5.905067000000031c-190.250667 0-342.016 96.8448-342.016 301.4912 0 71.0656 33.169067 137.122133 89.224533 196.411733 19.9936 21.1456 41.480533 39.850667 62.9504 55.876267 7.483733 5.5808 14.404267 10.4192 20.573867 14.464 3.592533 2.363733 6.0672 3.899733 7.210667 4.573867 30.190933 19.950933 27.332267 55.108267-2.210133 70.109867 0.068267 0.221867 0.093867 0.315733 0.068267 0.3328-0.110933 0.0512-0.110933 0.0512-0.1792 0.085333-0.1536 0.068267-0.1536 0.068267-0.341333 0.162133-0.469333 0.221867-0.469333 0.221867-1.032533 0.4864l0 0c-1.066667 0.503467-1.066667 0.503467-1.416533 0.6656l-0.008533-0.008533c-0.315733 0.1536-0.324267 0.162133-0.759467 0.3584l-0.580267 0.221867c-0.0512 0.017067-0.085333 0.042667-0.119467 0.059733l-0.017067-0.017067-3.0976 1.1776c-26.103467 7.637333-42.478933 26.1376-42.478933 45.2352 0 25.412267 28.842667 48.657067 66.944 48.657067 8.200533 0 15.7184-1.536 22.3488-4.061867 3.677867-1.399467 5.9392-2.619733 6.485333-2.986667l3.2512-1.885867c24.226133-11.8016 55.415467-4.360533 72.772267 16.196267l2.261333 3.106133c2.2528 3.584 7.4496 10.103467 14.984533 16.631467 11.8528 10.2912 24.772267 16.1536 38.570667 16.1536 13.7984 0 26.734933-5.8624 38.5792-16.1536 7.517867-6.536533 12.731733-13.047467 14.967467-16.631467l1.8176-2.56c16.896-21.137067 48.401067-28.168533 72.6784-17.006933l3.797333 2.141867c0.5376 0.366933 2.807467 1.5872 6.4768 2.986667 6.6304 2.525867 14.165333 4.061867 22.3488 4.061867 38.1184 0 66.952533-23.253333 66.952533-48.657067 0-19.0976-16.375467-37.597867-42.4704-45.2352l-3.831467-1.442133c-7.517867-3.515733-12.501333-5.1712-14.353067-5.572267-37.546667-11.613867-43.9296-49.9456-13.508267-71.355733 2.491733-1.604267 5.0176-3.242667 8.6784-5.7344 6.2464-4.266667 13.269333-9.3184 20.829867-15.112533 21.717333-16.5888 43.434667-35.712 63.6416-56.977067 56.405333-59.400533 89.762133-123.323733 89.762133-188.757333C857.873067 80.34133299999996 713.028267-5.905067000000031 508.1344-5.905067000000031L508.1344-5.905067000000031zM619.6992 310.77546700000005c12.330667 0 22.314667 10.205867 22.314667 22.8096s-9.984 22.818133-22.314667 22.818133L528.5376 356.40319999999997l84.6336 86.519467c8.712533 8.9088 8.712533 23.3472 0 32.256s-22.843733 8.9088-31.556267 0l-73.472-75.1104-73.480533 75.1104c-8.712533 8.9088-22.852267 8.9088-31.5648 0-8.712533-8.9088-8.712533-23.3472 0-32.256l84.650667-86.519467L396.552533 356.40319999999997c-12.3136 0-22.314667-10.2144-22.314667-22.818133s10.001067-22.8096 22.314667-22.8096l89.2672 0 0-22.818133L396.552533 287.95733299999995c-12.3136 0-22.314667-10.205867-22.314667-22.8096s10.001067-22.818133 22.314667-22.818133l89.2672 0 0-65.698133c0-9.634133 9.984-17.442133 22.314667-17.442133 12.3136 0 22.306133 7.808 22.306133 17.442133l0 65.698133 89.258667 0c12.330667 0 22.314667 10.2144 22.314667 22.818133s-9.984 22.8096-22.314667 22.8096l-89.258667 0 0 22.818133L619.6992 310.77546700000005 619.6992 310.77546700000005z"  horiz-adv-x="1024" />

    
    <glyph glyph-name="13" unicode="&#59121;" d="M771.51915-9.67715099999998c-44.453445 0-84.825944 25.349341-104.470353 64.332191H356.988042c-19.597337-38.98285-60.018955-64.332191-104.510262-64.332191-50.231031 0-94.451162 32.015158-110.654192 78.909188-50.429553 24.788569-80.916914 78.043471-76.651774 135.411039l9.246594 123.105782c3.958148 52.844555 35.515888 99.779517 83.152839 124.71442l38.823214 182.569082c16.746406 78.652338 95.78146 142.643768 176.195931 142.643768h278.859125c80.414471 0 159.461805-63.99143 176.170349-142.677537l38.809911-182.535313c47.601134-24.89397 79.160921-71.834049 83.154885-124.70828l9.244548-123.111922c4.267187-57.407478-26.222221-110.62247-76.638471-135.411039-16.143679-46.933939-60.32697-78.909188-110.671589-78.909188zM330.495668 93.63993600000003h363.046526l4.647857-12.902868c11.223622-31.254841 40.027645-51.429323 73.330122-51.429323 35.764552 0 66.86692 24.205285 75.69396 58.85034l2.396583 9.518794 9.134031 3.725858c39.882336 16.295128 64.470337 56.605206 61.186548 100.348476l-9.244549 123.109875c-3.122107 41.833781-29.677926 78.798671-69.263503 96.424097l-9.097192 4.036943-42.844807 201.568808c-13.09218 61.667501-75.015507 111.801319-138.03275 111.801319H372.589368c-63.019289 0-124.978433-50.133817-138.072658-111.801319l-42.842761-201.568808-9.097192-4.036943c-39.620369-17.665335-66.175165-54.589292-69.263503-96.424097l-9.244549-123.109875c-3.281743-43.74327 21.304212-84.053348 61.223387-100.348476l9.05933-3.692089 2.434445-9.516747c8.876158-34.681894 40.004109-58.890248 75.691913-58.890249 33.340339 0 62.146409 20.174482 73.370031 51.427276l4.647857 12.909008z m404.745231 81.882916c-21.453614 0-42.462091 8.714476-57.607023 23.868617-15.183817 15.187911-23.90034 36.20355-23.900339 57.67149s8.716522 42.48358 23.900339 57.671491c30.253024 30.265304 84.825944 30.376844 115.227348 0.039909 15.183817-15.192004 23.898293-36.243459 23.898293-57.7114s-8.714476-42.519396-23.860431-57.67149c-15.219633-15.189957-36.230156-23.868617-57.658187-23.868617z m0 124.103505c-11.028171 0-22.251793-4.649903-30.057573-12.451589-7.807826-7.801686-12.479219-19.072381-12.479219-30.112832s4.671393-22.307052 12.479219-30.108738c15.601326-15.609513 44.528146-15.645328 60.201103 0.029676 7.769964 7.772011 12.404518 19.037589 12.404518 30.078039s-4.634554 22.311145-12.440333 30.112831c-7.806803 7.80271-19.066241 12.452613-30.107715 12.452613zM288.743752 175.52285199999994c-21.451568 0-42.462091 8.714476-57.607023 23.868617-15.181771 15.187911-23.898293 36.20355-23.898293 57.67149s8.716522 42.48358 23.898293 57.671491c30.255071 30.265304 84.825944 30.376844 115.229395 0.039909 15.181771-15.192004 23.898293-36.243459 23.898293-57.7114s-8.716522-42.519396-23.862478-57.67149c-15.219633-15.189957-36.230156-23.868617-57.658187-23.868617z m0 124.103505c-11.028171 0-22.251793-4.649903-30.057573-12.451589s-12.489452-19.072381-12.489452-30.112832 4.683672-22.307052 12.489452-30.108738c15.601326-15.609513 44.528146-15.645328 60.201103 0.029676 7.772011 7.772011 12.404518 19.037589 12.404518 30.078039s-4.632507 22.311145-12.440333 30.112831c-7.804756 7.80271-19.066241 12.452613-30.107715 12.452613z m413.391145 94.02342H321.814961c-15.97995 0-30.057573 6.284123-39.610136 17.665335-9.095145 10.463306-13.056364 25.498744-10.620895 40.9916l0.920976 4.194532 32.947389 143.552464c5.680373 30.984688 36.696784 56.909128 68.920696 56.909127h275.220249c32.269961 0 63.238276-25.924439 69.064982-57.784054l33.03437-143.556557c3.122107-19.182898-0.874927-33.992185-10.587126-45.032636-8.7902-10.622942-23.099091-16.939811-38.970569-16.939811zM374.371968 617.9830549999999c-13.622252 0-28.265764-12.296047-30.746258-25.849737l-33.365922-145.227616c-0.810459-4.679579-0.159636-8.300037 1.585101-10.31902 2.7793-3.311419 6.934946-3.954055 9.970072-3.954055H702.134897c4.117784 0 7.659447 1.25355 9.331529 3.236718 2.998287 3.421936 2.777253 7.990998 2.396583 10.42749l-33.377178 144.999418c-2.629897 14.389732-17.271362 26.685779-30.905894 26.685779h-275.207969v0.001023z"  horiz-adv-x="1024" />

    
    <glyph glyph-name="daohang" unicode="&#58923;" d="M898.8 617.6H152.8a32 32 0 0 0 0 64h746a32 32 0 0 0 0-64zM898.8 348.592H152.8a32 32 0 0 0 0 64h746a32 32 0 0 0 0-64zM898.8 79.6H152.8a32 32 0 0 0 0 64h746a32 32 0 0 0 0-64z"  horiz-adv-x="1024" />

    
    <glyph glyph-name="12" unicode="&#58927;" d="M985.6 192c0 260.266667-213.333333 473.6-473.6 473.6S38.4 452.266667 38.4 192c0-21.333333 17.066667-38.4 38.4-38.4s38.4 17.066667 38.4 38.4c0 217.6 174.933333 392.533333 392.533333 392.533333s392.533333-174.933333 392.533334-392.533333c0-21.333333 17.066667-38.4 38.4-38.4 25.6 0 46.933333 17.066667 46.933333 38.4zM499.2 123.73333300000002l268.8 311.466667c8.533333 8.533333 8.533333 21.333333 0 29.866667-8.533333 8.533333-21.333333 8.533333-29.866667 0L426.666667 200.53333299999997c-4.266667 0-4.266667-4.266667-8.533334-8.533333-21.333333-21.333333-21.333333-55.466667 0-76.8s55.466667-21.333333 76.8 0c4.266667 0 4.266667 4.266667 4.266667 8.533333z"  horiz-adv-x="1024" />

    
    <glyph glyph-name="11" unicode="&#58895;" d="M635.733333 836.266667H392.533333C226.133333 780.8 106.666667 618.666667 106.666667 426.666667v-320c0-21.333333 17.066667-38.4 38.4-38.4h174.933333c17.066667-98.133333 98.133333-170.666667 196.266667-170.666667s179.2 72.533333 196.266666 170.666667h174.933334c21.333333 0 38.4 17.066667 38.4 38.4V426.666667c-8.533333 192-128 354.133333-290.133334 409.6zM512-25.600000000000023c-55.466667 0-102.4 38.4-119.466667 93.866667h238.933334c-17.066667-55.466667-64-93.866667-119.466667-93.866667z m332.8 170.666667H179.2V426.666667c0 196.266667 149.333333 354.133333 332.8 354.133333s332.8-157.866667 332.8-354.133333v-281.6zM465.066667 678.4c-115.2 0-213.333333-102.4-213.333334-226.133333v-93.866667c0-17.066667 12.8-29.866667 29.866667-29.866667 17.066667 0 29.866667 12.8 29.866667 29.866667v93.866667c0 89.6 68.266667 162.133333 153.6 162.133333 17.066667 0 29.866667 12.8 29.866666 29.866667 0 21.333333-12.8 34.133333-29.866666 34.133333zM388.266667 836.266667h243.2c4.266667 0-128 42.666667-243.2 0z"  horiz-adv-x="1024" />

    
    <glyph glyph-name="10" unicode="&#58881;" d="M938.666667 802.133333c0 8.533333-4.266667 21.333333-8.533334 25.6-8.533333 4.266667-21.333333 8.533333-29.866666 4.266667L76.8 430.933333c-8.533333-4.266667-12.8-12.8-17.066667-21.333333 0-8.533333 4.266667-17.066667 12.8-25.6l209.066667-153.6v-294.4c0-12.8 8.533333-21.333333 17.066667-25.6h8.533333c8.533333 0 17.066667 4.266667 21.333333 8.533333l136.533334 179.2 204.8-153.6c8.533333-4.266667 17.066667-8.533333 25.6-4.266666 8.533333 4.266667 17.066667 8.533333 17.066666 17.066666L938.666667 802.133333zM140.8 401.066667l618.666667 302.933333-452.266667-422.4-166.4 119.466667z m196.266667-166.4l422.4 396.8-315.733334-477.866667-106.666666-136.533333v217.6z m337.066666-221.866667l-174.933333 128 341.333333 516.266667-166.4-644.266667z"  horiz-adv-x="1024" />

    
    <glyph glyph-name="8" unicode="&#58898;" d="M802.133333 763.733333C793.6 793.6 768 810.666667 738.133333 810.666667H285.866667c-25.6 0-55.466667-17.066667-64-42.666667L85.333333 460.8v-435.2c0-38.4 29.866667-68.266667 72.533334-68.266667h712.533333c38.4 0 72.533333 34.133333 72.533333 72.533334V460.8l-140.8 302.933333z m-516.266666-25.6h452.266666l110.933334-247.466666h-196.266667c-21.333333 0-34.133333-12.8-34.133333-34.133334 0-59.733333-46.933333-106.666667-106.666667-106.666666s-106.666667 46.933333-106.666667 106.666666c0 21.333333-12.8 34.133333-34.133333 34.133334H174.933333l110.933334 247.466666z m-128-708.266666v392.533333H341.333333c17.066667-81.066667 89.6-140.8 174.933334-140.8s157.866667 59.733333 174.933333 140.8h183.466667v-392.533333H157.866667z"  horiz-adv-x="1024" />

    
    <glyph glyph-name="6" unicode="&#58903;" d="M106.666667 328.53333299999997c-25.6 25.6-42.666667 34.133333-42.666667 64V772.266667c0 29.866667 25.6 55.466667 55.466667 55.466666h379.733333c29.866667 0 34.133333-12.8 64-42.666666l375.466667-375.466667c46.933333-46.933333 46.933333-119.466667 0-166.4l-290.133334-290.133333c-46.933333-46.933333-119.466667-46.933333-166.4 0l-375.466666 375.466666z m793.6-42.666666c21.333333 21.333333 21.333333 59.733333 0 81.066666l-42.666667 42.666667-375.466667-375.466667 42.666667-42.666666c21.333333-21.333333 59.733333-21.333333 85.333333 0l290.133334 294.4zM119.466667 746.666667v-324.266667c0-17.066667 12.8-38.4 29.866666-51.2l290.133334-290.133333 375.466666 375.466666-290.133333 290.133334c-12.8 12.8-34.133333 29.866667-51.2 29.866666H149.333333c-17.066667-4.266667-29.866667-17.066667-29.866666-29.866666z m298.666666-273.066667C375.466667 426.666667 298.666667 426.666667 251.733333 473.6c-42.666667 46.933333-42.666667 119.466667 0 166.4C298.666667 686.933333 375.466667 686.933333 418.133333 640c46.933333-46.933333 46.933333-119.466667 0-166.4zM294.4 597.333333c-21.333333-21.333333-21.333333-59.733333 0-81.066666s59.733333-21.333333 85.333333 0c21.333333 21.333333 21.333333 59.733333 0 81.066666-25.6 21.333333-64 21.333333-85.333333 0z"  horiz-adv-x="1024" />

    
    <glyph glyph-name="5" unicode="&#58915;" d="M989.866667 426.666667L541.866667 823.466667c-4.266667 4.266667-12.8 4.266667-17.066667 4.266666-4.266667 0-17.066667 0-25.6-4.266666L51.2 426.666667c-34.133333-34.133333-25.6-59.733333 25.6-59.733334h89.6v-358.4c0-34.133333 25.6-59.733333 59.733333-59.733333h593.066667c34.133333 0 59.733333 25.6 59.733333 59.733333v358.4h89.6c46.933333 0 55.466667 21.333333 21.333334 59.733334z m-115.2 0h-59.733334v-418.133334H640v298.666667H401.066667v-298.666667H221.866667V426.666667h-85.333334l379.733334 337.066666L896 426.666667h-21.333333z m-413.866667-179.2h119.466667v-238.933334h-119.466667v238.933334z"  horiz-adv-x="1024" />

    
    <glyph glyph-name="4" unicode="&#58924;" d="M512 455.317c-3.187 0-6.375 0-9.563 3.492L151.813 598.525c-12.75 3.493-22.312 17.465-22.312 31.437s9.563 27.943 22.312 31.436L502.437 801.113c6.375 3.492 15.939 3.492 22.312 0l350.624-139.716c9.564-3.493 19.125-17.464 19.125-31.436s-9.562-27.944-22.313-31.437L521.56 458.809c-3.185-3.492-6.375-3.492-9.56-3.492zM227.667 629.961L512 518.409l284.333 111.552-284.333 111.551-284.335-111.551z m283.15-665.694c-3.188 0-6.376 0-9.562 3.492L150.629 107.476c-15.937 6.985-25.5 24.872-19.125 42.337 6.375 17.464 25.5 22.827 41.436 15.84l337.876-136.221 341.061 136.221c15.935 6.987 34.128 1.625 40.503-15.84s-2.252-35.352-18.192-42.337L523.564-32.24000000000001c-6.373-3.492-9.56-3.492-12.748-3.492zM512-33.686000000000035c-19.125 0-31.875 13.97-31.875 34.929V490.246c0 20.956 12.75 29.812 31.876 29.812 19.123 0 31.872-8.855 31.872-29.812v-489.003c0-20.959-12.749-34.929-31.872-34.929z m353.925 139.715c-17.146 0-28.577 13.97-28.577 34.929V629.96c0 20.956 11.43 34.93 28.577 34.93 17.145 0 28.573-13.973 28.573-34.93v-489.003c0-20.958-11.428-34.929-28.573-34.929z m-709.341 0c-16.25 0-27.083 13.97-27.083 34.929V629.96c0 20.956 10.833 34.93 27.083 34.93 16.249 0 27.082-13.973 27.082-34.93v-489.003c0-20.958-10.834-34.929-27.082-34.929z"  horiz-adv-x="1024" />

    
    <glyph glyph-name="wenzhang" unicode="&#59005;" d="M661.648 778H249.104c-39.088 0-70.304-31.752-70.304-70.304v-647.392c0-39.096 31.752-70.304 70.304-70.304h525.8c38.552 0 70.296 31.752 70.296 70.304V594.44L661.648 778z m12.664-74.704l96.176-96.184H684.584c-5.408 0-10.272 4.864-10.272 10.272V703.296z m126.928-642.992a26.24 26.24 0 0 0-26.344-26.352H249.104a26.24 26.24 0 0 0-26.344 26.352V707.696a26.24 26.24 0 0 0 26.344 26.344v0.464h381.328v-117.192c0-29.824 24.416-54.16 54.16-54.16h116.656v-502.848zM348.68 509.928h188.968a21.84 21.84 0 0 1 21.944 21.936 21.84 21.84 0 0 1-21.944 21.944H348.68a21.832 21.832 0 0 1-21.944-21.944 21.84 21.84 0 0 1 21.944-21.936zM674.848 251.2H348.68c-12.208 0-21.944-9.744-21.944-21.944s9.736-21.944 21.944-21.944h326.168c12.208 0 21.944 9.744 21.944 21.944S687.064 251.2 674.848 251.2zM348.68 400.144a21.824 21.824 0 0 1-21.944-21.944 21.832 21.832 0 0 1 21.944-21.936h326.168a21.832 21.832 0 0 1 21.944 21.936 21.832 21.832 0 0 1-21.944 21.944H348.68z"  horiz-adv-x="1024" />

    
    <glyph glyph-name="1" unicode="&#59219;" d="M692 768h-288c-50.4 0-96-45.6-96-96h-28.8c-50.4 0-91.2-45.6-91.2-96v-480c0-50.4 45.6-96 96-96h360c50.4 0 96 45.6 96 96h24c50.4 0 96 45.6 96 96V576l-168 192z m-48-720h-360c-24 0-48 24-48 48V576c0 24 21.6 48 45.6 48h26.4v-432c0-50.4 45.6-96 96-96h288c0-24-24-48-48-48z m168 144c0-24-24-48-48-48h-360c-24 0-48 24-48 48V672c0 24 24 48 48 48h240v-96c0-50.4 45.6-96 96-96h72v-336z m-72 384c-26.4 0-48 45.6-48 72V720l120-144h-72z m-48-144h-216c-14.4 0-24-9.6-24-24s9.6-24 24-24h216c14.4 0 24 9.6 24 24 0 12-9.6 24-24 24z m0-120h-216c-14.4 0-24-9.6-24-24s9.6-24 24-24h216c14.4 0 24 9.6 24 24 0 12-9.6 24-24 24z"  horiz-adv-x="1024" />

    
    <glyph glyph-name="yonghu" unicode="&#58880;" d="M512 270.222c-159.289 0-284.444 125.156-284.444 284.445S352.71 839.11 512 839.11s284.444-125.155 284.444-284.444S671.29 270.222 512 270.222z m0 56.89c125.156 0 227.556 102.4 227.556 227.555S637.156 782.222 512 782.222s-227.556-102.4-227.556-227.555S386.844 327.11 512 327.11zM56.889-128c0 250.311 204.8 455.111 455.111 455.111S967.111 122.311 967.111-128h-56.889c0 221.867-176.355 398.222-398.222 398.222S113.778 93.867 113.778-128h-56.89z"  horiz-adv-x="1024" />

    
    <glyph glyph-name="Verification-Code" unicode="&#58949;" d="M515.803429 835.803429c-224-150.857143-373.339429-124.946286-373.339429-124.946286v-536.374857c60.946286-45.714286 269.714286-242.285714 373.339429-242.285715 116.443429 0 368.768 246.857143 368.768 246.857143V713.910857c-187.428571-19.821714-368.768 121.892571-368.768 121.892572z m-41.526858-685.696L258.669714 366.48228600000004 457.142857 284.946286l311.222857 308.571428-294.089143-443.410285z"  horiz-adv-x="1024" />

    
    <glyph glyph-name="tuichu" unicode="&#58945;" d="M384 768H128v-768h256v64H192V704h192v64zM640 672l-64-64 192-192H352v-64h416L576 160l64-64 256 288-256 288z"  horiz-adv-x="1024" />

    


  </font>
</defs>
</svg>
